<mxfile host="app.diagrams.net" agent="Mozilla/5.0 (Windows NT 10.0; Win64; x64) AppleWebKit/537.36 (KHTML, like Gecko) Chrome/128.0.0.0 Safari/537.36" version="24.7.14">
  <diagram name="Página-1" id="6OxwescoxzQxg5ECTk_t">
    <mxGraphModel grid="1" page="1" gridSize="10" guides="1" tooltips="1" connect="1" arrows="1" fold="1" pageScale="1" pageWidth="827" pageHeight="1169" math="0" shadow="0">
      <root>
        <mxCell id="0" />
        <mxCell id="1" parent="0" />
        <mxCell id="yq_qy4NmkLmUBYizfQlu-12" value="" style="whiteSpace=wrap;html=1;aspect=fixed;" vertex="1" parent="1">
          <mxGeometry x="204.88" y="20" width="416.25" height="416.25" as="geometry" />
        </mxCell>
        <mxCell id="yq_qy4NmkLmUBYizfQlu-28" style="edgeStyle=orthogonalEdgeStyle;rounded=0;orthogonalLoop=1;jettySize=auto;html=1;" edge="1" parent="1" source="yq_qy4NmkLmUBYizfQlu-1" target="yq_qy4NmkLmUBYizfQlu-16">
          <mxGeometry relative="1" as="geometry" />
        </mxCell>
        <mxCell id="yq_qy4NmkLmUBYizfQlu-44" style="edgeStyle=orthogonalEdgeStyle;rounded=0;orthogonalLoop=1;jettySize=auto;html=1;" edge="1" parent="1" source="yq_qy4NmkLmUBYizfQlu-1" target="yq_qy4NmkLmUBYizfQlu-19">
          <mxGeometry relative="1" as="geometry">
            <Array as="points">
              <mxPoint x="220" y="120" />
              <mxPoint x="220" y="130" />
              <mxPoint x="413" y="130" />
            </Array>
          </mxGeometry>
        </mxCell>
        <mxCell id="yq_qy4NmkLmUBYizfQlu-1" value="Administrador&lt;span style=&quot;white-space: pre;&quot;&gt;&#x9;&lt;/span&gt;" style="shape=umlActor;verticalLabelPosition=bottom;verticalAlign=top;html=1;outlineConnect=0;" vertex="1" parent="1">
          <mxGeometry x="160" y="90" width="30" height="60" as="geometry" />
        </mxCell>
        <mxCell id="yq_qy4NmkLmUBYizfQlu-30" style="edgeStyle=orthogonalEdgeStyle;rounded=0;orthogonalLoop=1;jettySize=auto;html=1;" edge="1" parent="1" source="yq_qy4NmkLmUBYizfQlu-2" target="yq_qy4NmkLmUBYizfQlu-16">
          <mxGeometry relative="1" as="geometry" />
        </mxCell>
        <mxCell id="yq_qy4NmkLmUBYizfQlu-46" style="edgeStyle=orthogonalEdgeStyle;rounded=0;orthogonalLoop=1;jettySize=auto;html=1;" edge="1" parent="1" source="yq_qy4NmkLmUBYizfQlu-2" target="yq_qy4NmkLmUBYizfQlu-17">
          <mxGeometry relative="1" as="geometry" />
        </mxCell>
        <mxCell id="yq_qy4NmkLmUBYizfQlu-2" value="Motorista" style="shape=umlActor;verticalLabelPosition=bottom;verticalAlign=top;html=1;outlineConnect=0;" vertex="1" parent="1">
          <mxGeometry x="160" y="185" width="30" height="60" as="geometry" />
        </mxCell>
        <mxCell id="yq_qy4NmkLmUBYizfQlu-37" style="edgeStyle=orthogonalEdgeStyle;rounded=0;orthogonalLoop=1;jettySize=auto;html=1;" edge="1" parent="1" source="yq_qy4NmkLmUBYizfQlu-3" target="yq_qy4NmkLmUBYizfQlu-18">
          <mxGeometry relative="1" as="geometry" />
        </mxCell>
        <mxCell id="yq_qy4NmkLmUBYizfQlu-3" value="Segurança" style="shape=umlActor;verticalLabelPosition=bottom;verticalAlign=top;html=1;outlineConnect=0;" vertex="1" parent="1">
          <mxGeometry x="160" y="320" width="30" height="60" as="geometry" />
        </mxCell>
        <mxCell id="yq_qy4NmkLmUBYizfQlu-39" style="edgeStyle=orthogonalEdgeStyle;rounded=0;orthogonalLoop=1;jettySize=auto;html=1;entryX=1;entryY=0.5;entryDx=0;entryDy=0;" edge="1" parent="1" source="yq_qy4NmkLmUBYizfQlu-9" target="yq_qy4NmkLmUBYizfQlu-20">
          <mxGeometry relative="1" as="geometry" />
        </mxCell>
        <mxCell id="yq_qy4NmkLmUBYizfQlu-9" value="Manobrista" style="shape=umlActor;verticalLabelPosition=bottom;verticalAlign=top;html=1;outlineConnect=0;" vertex="1" parent="1">
          <mxGeometry x="650" y="65" width="30" height="60" as="geometry" />
        </mxCell>
        <mxCell id="yq_qy4NmkLmUBYizfQlu-32" style="edgeStyle=orthogonalEdgeStyle;rounded=0;orthogonalLoop=1;jettySize=auto;html=1;entryX=1;entryY=0.5;entryDx=0;entryDy=0;" edge="1" parent="1" source="yq_qy4NmkLmUBYizfQlu-8" target="yq_qy4NmkLmUBYizfQlu-19">
          <mxGeometry relative="1" as="geometry" />
        </mxCell>
        <mxCell id="yq_qy4NmkLmUBYizfQlu-45" style="edgeStyle=orthogonalEdgeStyle;rounded=0;orthogonalLoop=1;jettySize=auto;html=1;entryX=1;entryY=0.5;entryDx=0;entryDy=0;" edge="1" parent="1" source="yq_qy4NmkLmUBYizfQlu-8" target="yq_qy4NmkLmUBYizfQlu-18">
          <mxGeometry relative="1" as="geometry" />
        </mxCell>
        <mxCell id="yq_qy4NmkLmUBYizfQlu-8" value="Autoridades &lt;br&gt;Regulamentadoras" style="shape=umlActor;verticalLabelPosition=bottom;verticalAlign=top;html=1;outlineConnect=0;" vertex="1" parent="1">
          <mxGeometry x="650" y="320" width="30" height="60" as="geometry" />
        </mxCell>
        <mxCell id="yq_qy4NmkLmUBYizfQlu-34" style="edgeStyle=orthogonalEdgeStyle;rounded=0;orthogonalLoop=1;jettySize=auto;html=1;entryX=1;entryY=0.5;entryDx=0;entryDy=0;" edge="1" parent="1" source="yq_qy4NmkLmUBYizfQlu-13" target="yq_qy4NmkLmUBYizfQlu-19">
          <mxGeometry relative="1" as="geometry" />
        </mxCell>
        <mxCell id="yq_qy4NmkLmUBYizfQlu-50" style="edgeStyle=orthogonalEdgeStyle;rounded=0;orthogonalLoop=1;jettySize=auto;html=1;entryX=0.5;entryY=1;entryDx=0;entryDy=0;" edge="1" parent="1" target="yq_qy4NmkLmUBYizfQlu-20">
          <mxGeometry relative="1" as="geometry">
            <mxPoint x="650" y="200" as="sourcePoint" />
            <mxPoint x="529.9999999999998" y="110" as="targetPoint" />
            <Array as="points">
              <mxPoint x="650" y="170" />
              <mxPoint x="530" y="170" />
            </Array>
          </mxGeometry>
        </mxCell>
        <mxCell id="yq_qy4NmkLmUBYizfQlu-13" value="Equipe de &lt;br&gt;Manutenção" style="shape=umlActor;verticalLabelPosition=bottom;verticalAlign=top;html=1;outlineConnect=0;" vertex="1" parent="1">
          <mxGeometry x="650" y="185" width="30" height="60" as="geometry" />
        </mxCell>
        <mxCell id="yq_qy4NmkLmUBYizfQlu-56" style="edgeStyle=orthogonalEdgeStyle;rounded=0;orthogonalLoop=1;jettySize=auto;html=1;dashed=1;endArrow=open;endFill=0;" edge="1" parent="1" source="yq_qy4NmkLmUBYizfQlu-16" target="yq_qy4NmkLmUBYizfQlu-55">
          <mxGeometry relative="1" as="geometry" />
        </mxCell>
        <mxCell id="yq_qy4NmkLmUBYizfQlu-16" value="Gerenciar Reservas" style="ellipse;whiteSpace=wrap;html=1;" vertex="1" parent="1">
          <mxGeometry x="240" y="50" width="100" height="60" as="geometry" />
        </mxCell>
        <mxCell id="yq_qy4NmkLmUBYizfQlu-54" style="edgeStyle=orthogonalEdgeStyle;rounded=0;orthogonalLoop=1;jettySize=auto;html=1;dashed=1;endArrow=open;endFill=0;" edge="1" parent="1" source="yq_qy4NmkLmUBYizfQlu-17" target="yq_qy4NmkLmUBYizfQlu-52">
          <mxGeometry relative="1" as="geometry" />
        </mxCell>
        <mxCell id="yq_qy4NmkLmUBYizfQlu-17" value="Realizar pagamento" style="ellipse;whiteSpace=wrap;html=1;" vertex="1" parent="1">
          <mxGeometry x="250" y="240" width="100" height="70" as="geometry" />
        </mxCell>
        <mxCell id="yq_qy4NmkLmUBYizfQlu-58" style="edgeStyle=orthogonalEdgeStyle;rounded=0;orthogonalLoop=1;jettySize=auto;html=1;entryX=1;entryY=0.5;entryDx=0;entryDy=0;dashed=1;endArrow=open;endFill=0;" edge="1" parent="1" source="yq_qy4NmkLmUBYizfQlu-18" target="yq_qy4NmkLmUBYizfQlu-57">
          <mxGeometry relative="1" as="geometry" />
        </mxCell>
        <mxCell id="yq_qy4NmkLmUBYizfQlu-18" value="Monitorar Segurança" style="ellipse;whiteSpace=wrap;html=1;" vertex="1" parent="1">
          <mxGeometry x="363" y="315" width="100" height="70" as="geometry" />
        </mxCell>
        <mxCell id="yq_qy4NmkLmUBYizfQlu-19" value="Gerar Relatório" style="ellipse;whiteSpace=wrap;html=1;" vertex="1" parent="1">
          <mxGeometry x="363" y="160" width="100" height="70" as="geometry" />
        </mxCell>
        <mxCell id="yq_qy4NmkLmUBYizfQlu-20" value="Organizar Vagas" style="ellipse;whiteSpace=wrap;html=1;" vertex="1" parent="1">
          <mxGeometry x="480" y="60" width="100" height="70" as="geometry" />
        </mxCell>
        <mxCell id="yq_qy4NmkLmUBYizfQlu-52" value="&lt;font style=&quot;font-size: 10px;&quot;&gt;Informar métodos de pagamento&lt;/font&gt;" style="ellipse;whiteSpace=wrap;html=1;dashed=1;" vertex="1" parent="1">
          <mxGeometry x="389.5" y="250" width="73.5" height="50" as="geometry" />
        </mxCell>
        <mxCell id="yq_qy4NmkLmUBYizfQlu-55" value="&lt;span style=&quot;font-size: 10px;&quot;&gt;Informar Vagas livres/ocupadas&lt;/span&gt;" style="ellipse;whiteSpace=wrap;html=1;dashed=1;" vertex="1" parent="1">
          <mxGeometry x="382.62" y="55" width="87.25" height="50" as="geometry" />
        </mxCell>
        <mxCell id="yq_qy4NmkLmUBYizfQlu-57" value="&lt;font style=&quot;font-size: 10px;&quot;&gt;Acessar Câmeras&lt;/font&gt;" style="ellipse;whiteSpace=wrap;html=1;dashed=1;" vertex="1" parent="1">
          <mxGeometry x="300" y="380" width="73.5" height="50" as="geometry" />
        </mxCell>
        <mxCell id="yq_qy4NmkLmUBYizfQlu-59" value="Diagrama de casos de Uso&lt;br&gt;&lt;font style=&quot;font-size: 10px;&quot;&gt;Sistema de estacionamento&lt;/font&gt;" style="text;html=1;align=center;verticalAlign=middle;whiteSpace=wrap;rounded=0;fillColor=default;fontStyle=1" vertex="1" parent="1">
          <mxGeometry x="213" y="27" width="400" height="15" as="geometry" />
        </mxCell>
      </root>
    </mxGraphModel>
  </diagram>
</mxfile>
